{
  "accessors": [
    {
      "bufferView": 0,
      "componentType": 5126,
      "count": 3282,
      "max": [
        1.226063847541809,
        0.0870886892080307,
        7.26209831237793
      ],
      "min": [
        -0.7415289878845215,
        -0.08708789944648743,
        -1.339959979057312
      ],
      "type": "VEC3"
    },
    {
      "bufferView": 1,
      "componentType": 5125,
      "count": 5626,
      "type": "SCALAR"
    },
    {
      "bufferView": 2,
      "componentType": 5126,
      "count": 3282,
      "type": "VEC3"
    },
    {
      "bufferView": 3,
      "componentType": 5126,
      "count": 3282,
      "type": "VEC4"
    },
    {
      "bufferView": 4,
      "componentType": 5126,
      "count": 3282,
      "type": "VEC2"
    }
  ],
  "asset": {
    "version": "2.0"
  },
  "bufferViews": [
    {
      "buffer": 0,
      "byteLength": 39384,
      "target": 34962
    },
    {
      "buffer": 1,
      "byteLength": 22504,
      "target": 34963
    },
    {
      "buffer": 2,
      "byteLength": 39384,
      "target": 34962
    },
    {
      "buffer": 3,
      "byteLength": 52512,
      "target": 34962
    },
    {
      "buffer": 4,
      "byteLength": 26256,
      "target": 34962
    }
  ],
  "buffers": [
    {
      "byteLength": 39384,
      "uri": "data:application/octet-stream;base64,"
    },
    {
      "byteLength": 22504,
      "uri": "data:application/octet-stream;base64,"
    },
    {
      "byteLength": 39384,
      "uri": "data:application/octet-stream;base64,"
    },
    {
      "byteLength": 52512,
      "uri": "data:application/octet-stream;base64,"
    },
    {
      "byteLength": 26256,
      "uri": "data:application/octet-stream;base64,"
    }
  ],
  "materials": [
    {
      "doubleSided": true,
      "name": "Quill",
      "pbrMetallicRoughness": {
        "baseColorTexture" : {"index" : 0},
        "baseColorFactor": [
          1.0,
          1.0,
          1.0,
          1.0
        ]
      }
    }
  ],
  "images": [
    {
         "uri" : "e67e601086d04b86a719b7b402feca20_RGB_Quill.png"
    }
  ],
  "textures": [
    {
         "source" : 0
    }
  ],
  "meshes": [
    {
      "name": "Quill-material",
      "primitives": [
        {
          "attributes": {
            "NORMAL": 2,
            "POSITION": 0,
            "TANGENT": 3,
            "TEXCOORD_0": 4
          },
          "indices": 1,
          "mode": 5
        }
      ]
    }
  ],
  "nodes": [
    {
      "mesh": 0,
      "name": "Quill-material"
    },
    {
      "children": [
        0
      ],
      "name": "Quill",
      "rotation": [
        -0.7071067811865475,
        0.0,
        0.0,
        0.7071067811865476
      ],
      "scale": [
        1.0,
        1.0,
        1.0
      ],
      "translation": [
        0.0,
        0.0,
        0.0
      ]
    }
  ],
  "scene": 0,
  "scenes": [
    {
      "nodes": [
        1
      ]
    }
  ]
}
